<?xml version="1.0" encoding="UTF-8" standalone="no"?>
<svg
   id="eFL54zYQI6y1"
   viewBox="0 0 121.70833 153.45833"
   shape-rendering="geometricPrecision"
   text-rendering="geometricPrecision"
   version="1.1"
   sodipodi:docname="hourglass-animated.svg"
   inkscape:version="1.2.1 (9c6d41e410, 2022-07-14, custom)"
   xmlns:inkscape="http://www.inkscape.org/namespaces/inkscape"
   xmlns:sodipodi="http://sodipodi.sourceforge.net/DTD/sodipodi-0.dtd"
   xmlns="http://www.w3.org/2000/svg"
   xmlns:svg="http://www.w3.org/2000/svg">
  <defs
     id="defs26" />
  <sodipodi:namedview
     id="namedview24"
     pagecolor="#3c3c3c"
     bordercolor="#111111"
     borderopacity="1"
     inkscape:showpageshadow="0"
     inkscape:pageopacity="0"
     inkscape:pagecheckerboard="1"
     inkscape:deskcolor="#d1d1d1"
     showgrid="false"
     inkscape:zoom="3.8106587"
     inkscape:cx="80.5635"
     inkscape:cy="71.116314"
     inkscape:window-width="1920"
     inkscape:window-height="1007"
     inkscape:window-x="0"
     inkscape:window-y="0"
     inkscape:window-maximized="1"
     inkscape:current-layer="g21" />
  <style
     id="style2"><![CDATA[
#eFL54zYQI6y4_to {animation: eFL54zYQI6y4_to__to 1300ms linear 1 normal forwards; animation-delay: 6.8s;}@keyframes eFL54zYQI6y4_to__to { 0% {transform: translate(61.093731px,138.372726px)} 100% {transform: translate(61.093731px,115.548299px)}} #eFL54zYQI6y5_to {animation: eFL54zYQI6y5_to__to 1300ms linear 1 normal forwards; animation-delay: 6.8s; }@keyframes eFL54zYQI6y5_to__to { 0% {transform: translate(61.081285px,110.084877px)} 76.923077% {transform: translate(61.081285px,110.084877px)} 100% {transform: translate(61.081297px,121.47257px)}} #eFL54zYQI6y5_ts {animation: eFL54zYQI6y5_ts__ts 1300ms linear 1 normal forwards; animation-delay: 6.8s; }@keyframes eFL54zYQI6y5_ts__ts { 0% {transform: scale(1,1.604144)} 76.923077% {transform: scale(1,1.604144)} 100% {transform: scale(1,0.743595)}} #eFL54zYQI6y6_to {animation: eFL54zYQI6y6_to__to 1300ms linear 1 normal forwards; animation-delay: 6.8s; }@keyframes eFL54zYQI6y6_to__to { 0% {transform: translate(61.073275px,42.787569px)} 69.230769% {transform: translate(61.32715px,58.756322px)} 100% {transform: translate(61.32715px,58.756322px)}} #eFL54zYQI6y6_ts {animation: eFL54zYQI6y6_ts__ts 1300ms linear 1 normal forwards; animation-delay: 6.8s; }@keyframes eFL54zYQI6y6_ts__ts { 0% {transform: scale(1,1)} 23.076923% {transform: scale(0.894264,0.742789)} 69.230769% {transform: scale(0.535873,0.14263)} 100% {transform: scale(0.535873,0.14263)}} #eFL54zYQI6y7_to {animation: eFL54zYQI6y7_to__to 1300ms linear 1 normal forwards; animation-delay: 6.8s; }@keyframes eFL54zYQI6y7_to__to { 0% {transform: translate(61.32719px,140.240692px)} 15.384615% {transform: translate(61.327196px,136.50629px)} 100% {transform: translate(61.327218px,126.658209px)}} #eFL54zYQI6y7_ts {animation: eFL54zYQI6y7_ts__ts 1300ms linear 1 normal forwards; animation-delay: 6.8s; }@keyframes eFL54zYQI6y7_ts__ts { 0% {transform: scale(1,1)} 100% {transform: scale(1.030621,9.886483)}}
]]></style>
  <g
     transform="translate(-0.09432278,-0.030998)"
     id="g21">
    <g
       id="eFL54zYQI6y4_to"
       transform="translate(61.093731,138.37273)">
      <rect
         width="44.596401"
         height="44.596401"
         rx="0"
         ry="0"
         transform="matrix(0.96185322,-0.27356606,0.9618536,0.27356617,-42.89537,-1.7475603e-4)"
         fill="#ffffff"
         stroke-width="0.395853"
         id="rect6"
         x="0"
         y="0"
         style="stroke:none;fill:#ffb6c1;fill-opacity:1" />
    </g>
    <g
       id="eFL54zYQI6y5_to"
       transform="translate(61.081285,110.08488)">
      <g
         id="eFL54zYQI6y5_ts"
         transform="scale(1,1.604144)">
        <rect
           width="3.9349201"
           height="30.156401"
           rx="2.401202"
           ry="2.401202"
           transform="translate(-1.967485,-15.078177)"
           fill="#ffffff"
           stroke-width="1.03824"
           id="rect9"
           x="0"
           y="0"
           style="stroke:none;fill:#ffb6c1;fill-opacity:1" />
      </g>
    </g>
    <g
       id="eFL54zYQI6y6_to"
       transform="translate(61.073275,42.787569)">
      <g
         id="eFL54zYQI6y6_ts">
        <path
           d="m 20.613729,28.949654 c 0.587932,15.396331 18.524839,27.66584 40.459546,27.67583 21.934707,-0.01 39.871615,-12.2795 40.459545,-27.67583 z"
           transform="translate(-61.073275,-42.787569)"
           fill="#ffffff"
           stroke-width="0.536198"
           id="path13"
           style="stroke:none;fill:#ffb6c1;fill-opacity:1" />
      </g>
    </g>
    <g
       id="eFL54zYQI6y7_to"
       transform="translate(61.32719,140.24069)">
      <g
         id="eFL54zYQI6y7_ts">
        <rect
           width="87.544296"
           height="2.2502999"
           rx="0"
           ry="0"
           transform="translate(-43.77219,-1.124692)"
           fill="#ffffff"
           stroke-width="0.595158"
           id="rect17"
           x="0"
           y="0"
           style="stroke:none;fill:#ffb6c1;fill-opacity:1" />
      </g>
    </g>
    <path
       id="path4"
       style="fill:#ffffff;fill-opacity:1"
       d="M 9.0943228 -0.037361375 C 4.1085116 -0.037361375 0.09432278 3.9768275 0.09432278 8.9626386 C 0.09432278 13.607628 3.5785631 17.40604 8.0865103 17.904045 C 8.6094599 23.466 10.558675 34.346453 17.955651 44.04467 C 28.370601 57.699772 37.888522 58.358176 45.609948 63.622795 C 53.331376 68.887414 52.971276 76.822014 52.971276 76.822014 C 52.971276 76.822014 53.331381 84.758567 45.609948 90.023185 C 37.888517 95.287806 28.370601 95.946185 17.955651 109.60131 C 10.629182 119.20707 8.6365973 129.96849 8.0923697 135.54858 C 3.5816055 136.04395 0.09432278 139.843 0.09432278 144.48998 C 0.09432278 149.47579 4.1085116 153.48998 9.0943228 153.48998 L 112.80331 153.48998 C 117.78912 153.48998 121.80331 149.47579 121.80331 144.48998 C 121.80331 139.84294 118.31415 136.04388 113.80331 135.54858 C 113.25907 129.96849 111.26844 119.20706 103.94198 109.60131 C 93.52703 95.946185 84.009108 95.287804 76.287682 90.023185 C 68.566254 84.758569 68.926354 76.806389 68.926354 76.806389 C 68.926354 76.806389 68.566252 68.854206 76.287682 63.589592 C 84.00911 58.324975 93.52703 57.66657 103.94198 44.011467 C 111.3376 34.315021 113.28384 23.457356 113.80721 17.904045 C 118.31619 17.406995 121.80331 13.608354 121.80331 8.9626386 C 121.80331 3.9768275 117.78912 -0.037361375 112.80331 -0.037361375 L 9.0943228 -0.037361375 z M 17.434167 17.962639 L 104.60604 17.962639 C 100.60396 39.987407 82.324232 55.935099 61.020104 55.95092 C 39.715973 55.9351 21.436256 39.987408 17.434167 17.962639 z M 61.020104 97.314201 C 82.384471 97.330071 100.71083 113.36854 104.64315 135.48998 L 17.397057 135.48998 C 21.329383 113.36854 39.655735 97.330065 61.020104 97.314201 z " />
  </g>
</svg>
