<svg id="e2i3OQpsc471" xmlns="http://www.w3.org/2000/svg" xmlns:xlink="http://www.w3.org/1999/xlink" viewBox="0 0 50 50" shape-rendering="geometricPrecision" text-rendering="geometricPrecision">
<style><![CDATA[
#e2i3OQpsc472_tr {animation: e2i3OQpsc472_tr__tr 2000ms linear infinite normal forwards}@keyframes e2i3OQpsc472_tr__tr { 0% {transform: translate(25.018723px,24.9022px) rotate(0deg)} 100% {transform: translate(25.018723px,24.9022px) rotate(359.999997deg)}}
]]></style>
<g id="e2i3OQpsc472_tr" transform="translate(25.018723,24.9022) rotate(0)"><path d="M47.951526,23.540736c-.407543-8.286701-5.433903-16.030012-12.905519-19.562049-8.150854-3.667884-18.067726-2.173561-24.860104,3.532037-6.520684,5.433902-9.50933,14.263994-7.607464,22.550695c1.766018,8.150854,8.150854,14.807385,16.16586,16.980946c9.645177,2.716951,18.475269-1.901866,23.909172-9.781025-4.890513,6.520683-12.362129,10.867805-20.64883,9.373482s-15.07908-7.743311-16.980946-15.894165C2.985982,22.046413,7.061409,12.944626,14.80472,8.461656c8.015006-4.618817,19.290354-2.852798,24.588409,5.02636c1.358476,1.901866,2.309409,4.211275,2.716951,6.520683.407543,1.901866.271695,3.93958.543391,5.841446.271695,1.766018,1.766018,4.075427,3.803731,2.852799c1.766019-1.086781,1.630171-3.396189,1.494324-5.162208c0-.54339.135847.950933,0,0Z" transform="translate(-25.018723,-24.9022)" fill="#fff" stroke-width="1.35848"/></g></svg>
